<svg xmlns="http://www.w3.org/2000/svg" xmlns:xlink="http://www.w3.org/1999/xlink" version="1.1" width="256" height="256" viewBox="0 0 256 256" xml:space="preserve">

<defs>
</defs>
<g style="stroke: none; stroke-width: 0; stroke-dasharray: none; stroke-linecap: butt; stroke-linejoin: miter; stroke-miterlimit: 10; fill: none; fill-rule: nonzero; opacity: 1;" transform="translate(1.4065934065934016 1.4065934065934016) scale(2.81 2.81)" >
	<path d="M 24.482 67.518 c -0.512 0 -1.024 -0.195 -1.414 -0.586 c -0.781 -0.781 -0.781 -2.047 0 -2.828 l 41.035 -41.035 c 0.781 -0.781 2.047 -0.781 2.828 0 c 0.781 0.781 0.781 2.047 0 2.828 L 25.896 66.932 C 25.506 67.322 24.994 67.518 24.482 67.518 z" style="stroke: none; stroke-width: 1; stroke-dasharray: none; stroke-linecap: butt; stroke-linejoin: miter; stroke-miterlimit: 10; fill: rgb(236,0,0); fill-rule: nonzero; opacity: 1;" transform=" matrix(1 0 0 1 0 0) " stroke-linecap="round" />
	<path d="M 65.518 67.518 c -0.512 0 -1.023 -0.195 -1.414 -0.586 L 23.068 25.896 c -0.781 -0.781 -0.781 -2.047 0 -2.828 c 0.78 -0.781 2.048 -0.781 2.828 0 l 41.035 41.035 c 0.781 0.781 0.781 2.047 0 2.828 C 66.541 67.322 66.029 67.518 65.518 67.518 z" style="stroke: none; stroke-width: 1; stroke-dasharray: none; stroke-linecap: butt; stroke-linejoin: miter; stroke-miterlimit: 10; fill: rgb(236,0,0); fill-rule: nonzero; opacity: 1;" transform=" matrix(1 0 0 1 0 0) " stroke-linecap="round" />
	<path d="M 88 90 H 2 c -1.104 0 -2 -0.896 -2 -2 V 2 c 0 -1.104 0.896 -2 2 -2 h 86 c 1.104 0 2 0.896 2 2 v 86 C 90 89.104 89.104 90 88 90 z M 4 86 h 82 V 4 H 4 V 86 z" style="stroke: none; stroke-width: 1; stroke-dasharray: none; stroke-linecap: butt; stroke-linejoin: miter; stroke-miterlimit: 10; fill: rgb(236,0,0); fill-rule: nonzero; opacity: 1;" transform=" matrix(1 0 0 1 0 0) " stroke-linecap="round" />
</g>
</svg>